<?xml version="1.0" encoding="utf-8"?>
<!-- Generator: Adobe Illustrator 26.0.3, SVG Export Plug-In . SVG Version: 6.00 Build 0)  -->
<svg version="1.0" id="katman_1" xmlns="http://www.w3.org/2000/svg" xmlns:xlink="http://www.w3.org/1999/xlink" x="0px" y="0px"
	 viewBox="0 0 800 600" style="enable-background:new 0 0 800 600;" xml:space="preserve">
<style type="text/css">
	.st0{fill:#7DB43C;}
</style>
<path class="st0" d="M506.1,344h22.1c4,0,7.3-3.3,7.3-7.3v-88.3h-14.3v27.4c-1.9-2-6.6-3.5-12-3.5c-16.1,0-25.6,13.2-25.6,36.1
	C483.6,332.4,495.8,344,506.1,344z M509.7,329.5c-7.8,0-11.6-11.1-11.6-20.7c0-16.5,4.5-22.1,12.6-22.1c4.7,0,8.8,2,10.6,4.7l0,38
	H509.7z M656.5,291.3c-4.8-9.9-9.9-17.2-22.4-17.2h-14.2c-4,0-7.3,3.3-7.3,7.3V344h14.3v-55.5h7.2c4.3,0,5.7,2.1,8.9,8.5
	L656.5,291.3z M472,344v-48.4c0-12.5-9-21.5-21.5-21.5H427c-4,0-7.3,3.3-7.3,7.3V344H434v-55.5h16.5c4,0,7.3,3.3,7.3,7.3V344H472z
	 M168,322c0-5.4,1.1-13.4,24.6-6.7v14.3h-17.7C170.8,329.5,168,326.1,168,322z M153.7,322.2c0,11.4,9.3,21.8,20.7,21.8h25.1
	c4,0,7.3-3.3,7.3-7.3l0-41.1c0-12.5-9-21.5-21.5-21.5h-26.8v14.4h26.8c4,0,7.3,3.3,7.3,7.3v6.2C175.1,297.3,153.7,298.3,153.7,322.2
	z M366.4,322c0-5.4,1.1-13.4,24.6-6.7v14.3h-17.7C369.2,329.5,366.4,326.1,366.4,322z M352.1,322.2c0,11.4,9.3,21.8,20.7,21.8H398
	c4,0,7.3-3.3,7.3-7.3l0-41.1c0-12.5-9-21.5-21.5-21.5h-26.8v14.4h26.8c4,0,7.3,3.3,7.3,7.3v6.2C373.5,297.3,352.1,298.3,352.1,322.2
	z M332.9,246.1c-4.6,0-8.4,3.8-8.4,8.4c0,4.6,3.8,8.4,8.4,8.4s8.4-3.8,8.4-8.4C341.3,249.8,337.5,246.1,332.9,246.1z M300.8,274.1
	v14.4h24.9V344H340v-62.7c0-4-3.3-7.3-7.3-7.3L300.8,274.1z M310.5,344v-14.5h-24.9v-55.5h-14.3v62.7c0,4,3.3,7.3,7.3,7.3H310.5z
	 M259.6,344v-14.5h-24.9v-55.5h-14.3v62.7c0,4,3.3,7.3,7.3,7.3H259.6z M562.5,298c0-4.6,4.1-11.2,12.5-11.2c7.4,0,10.9,4.7,10.9,9.1
	c0,6.7-5.2,7.8-12.3,7.8c-3.3,0-7.6-0.5-11-1.3V298z M571.8,329.5c-5.1,0-9.1-4.4-9.4-9.4v-4.3c3.8,0.9,7.8,1.3,11.9,1.3
	c15.9,0,26.3-6,26.3-21.1c0-11.7-8.3-23.7-25.4-23.7c-11.6,0-27.3,8.7-27.2,25l0,22.4c0,15.7,12.4,24.3,23.7,24.3H596v-14.5
	C596,329.5,571.8,329.5,571.8,329.5z M703.8,250.6v105.2c0,15.5-12.6,28-28,28H132.8c-15.5,0-28-12.6-28-28V222.6h571
	C691.2,222.6,703.8,235.2,703.8,250.6"/>
</svg>
